<svg width="136" height="95" viewBox="0 0 136 95" fill="none" xmlns="http://www.w3.org/2000/svg">
<path fill-rule="evenodd" clip-rule="evenodd" d="M3.00123 51.5875C10.1758 71.2056 31.8193 81.265 51.3432 74.0558C55.3174 72.5883 58.8975 70.5184 62.0186 67.9867C62.2135 68.6192 62.4257 69.25 62.6557 69.8786C69.8303 89.4967 91.4737 99.5561 110.998 92.3469C130.522 85.1377 140.533 63.3899 133.358 43.7718C126.183 24.1537 104.54 14.0943 85.0161 21.3036C81.0419 22.771 77.4618 24.8409 74.3407 27.3726C74.1458 26.7401 73.9335 26.1093 73.7036 25.4807C66.529 5.86261 44.8856 -4.19677 25.3617 3.01244C5.83772 10.2217 -4.17338 31.9695 3.00123 51.5875Z" fill="#BBE2B5"/>
</svg>
