<?xml version="1.0" standalone="no"?>
<!DOCTYPE svg PUBLIC "-//W3C//DTD SVG 20010904//EN"
 "http://www.w3.org/TR/2001/REC-SVG-20010904/DTD/svg10.dtd">
<svg version="1.0" xmlns="http://www.w3.org/2000/svg"
 width="1080.000000pt" height="1080.000000pt" viewBox="0 0 1080.000000 1080.000000"
 preserveAspectRatio="xMidYMid meet">
<metadata>
Created by potrace 1.14, written by Peter Selinger 2001-2017
</metadata>
<g transform="translate(0.000000,1080.000000) scale(0.100000,-0.100000)"
fill="#000000" stroke="none">
<path d="M1657 8514 c-1 -1 -33 -5 -72 -9 -191 -18 -389 -89 -524 -188 -211
-153 -315 -370 -310 -645 6 -285 114 -480 349 -628 101 -64 169 -96 406 -189
225 -90 319 -133 355 -163 55 -46 61 -116 12 -158 -32 -28 -34 -29 -128 -48
-71 -15 -282 -16 -375 -1 -143 22 -358 89 -483 152 -37 18 -71 32 -75 29 -5
-3 -8 -589 -3 -693 1 -18 16 -26 94 -52 101 -33 245 -67 329 -77 29 -4 56 -8
59 -10 10 -6 234 -18 324 -17 296 2 541 62 712 175 67 44 184 164 217 223 40
72 75 170 82 229 4 28 8 54 11 58 6 11 5 167 -2 223 -15 127 -70 255 -149 350
-42 52 -51 60 -152 143 -5 5 -21 15 -35 22 -13 7 -26 16 -29 19 -16 19 -201
109 -384 186 -239 100 -304 134 -352 179 -37 36 -44 49 -44 80 0 109 134 166
372 161 103 -3 167 -8 224 -19 63 -12 163 -39 191 -52 17 -8 34 -14 37 -14 4
0 38 -16 77 -35 39 -19 73 -35 75 -35 2 0 4 153 4 341 l0 340 -37 16 c-30 12
-199 63 -210 63 -2 0 -4 0 -5 1 -2 0 -12 2 -23 4 -11 1 -49 7 -85 13 -94 16
-199 24 -333 26 -64 1 -118 1 -120 0z"/>
<path d="M5938 8515 c-2 -1 -36 -6 -76 -9 -40 -4 -78 -9 -85 -11 -7 -3 -25 -7
-42 -9 -81 -9 -260 -70 -356 -121 -26 -14 -57 -31 -70 -37 -13 -7 -46 -28 -74
-47 -279 -191 -468 -467 -545 -796 -27 -114 -31 -144 -34 -290 -14 -533 256
-991 719 -1223 214 -106 437 -155 710 -155 142 0 249 10 415 39 124 22 356 93
450 138 l35 17 -1 542 c-1 298 -2 545 -3 550 0 4 -161 7 -356 7 l-355 0 -2
-302 -3 -302 -30 -3 c-111 -11 -275 -3 -348 16 -224 59 -388 219 -451 442 -59
212 -23 435 98 599 66 90 131 145 227 192 115 55 222 76 383 73 134 -2 220 -9
276 -22 14 -3 39 -7 55 -10 91 -13 359 -99 393 -126 15 -12 14 -39 16 355 l1
327 -95 37 c-119 45 -289 90 -400 104 -47 6 -98 13 -115 16 -33 5 -333 13
-337 9z"/>
<path d="M7685 8490 c-5 -8 -10 -2337 -5 -2592 l0 -28 364 0 364 0 3 23 c3 12
4 273 3 579 0 393 3 555 10 550 6 -3 78 -60 161 -127 82 -66 156 -125 165
-132 16 -13 92 -74 125 -101 11 -10 65 -53 120 -97 55 -44 105 -84 111 -90 6
-5 26 -21 44 -35 18 -14 65 -51 104 -83 90 -73 55 -46 379 -306 153 -122 283
-221 290 -218 9 3 12 297 12 1315 l0 1312 -35 1 c-151 3 -692 0 -696 -4 -3 -3
-6 -265 -6 -582 0 -537 -1 -576 -16 -562 -10 8 -75 61 -147 119 -71 57 -179
144 -240 193 -60 49 -144 116 -185 149 -41 33 -102 83 -136 111 -33 27 -78 64
-99 80 -21 17 -80 64 -130 105 -277 226 -528 425 -540 428 -7 2 -16 -2 -20 -8z"/>
<path d="M3278 8462 c-14 -3 -16 -133 -15 -1298 l0 -1294 376 0 376 0 0 1289
c0 709 -3 1293 -7 1297 -7 6 -697 12 -730 6z"/>
<path d="M2209 5406 c-2 -2 -34 -6 -71 -10 -174 -15 -396 -78 -578 -164 -79
-38 -237 -131 -281 -166 -14 -12 -43 -34 -65 -50 -76 -58 -260 -253 -326 -346
-105 -148 -225 -407 -252 -543 -3 -12 -9 -44 -15 -72 -20 -97 -22 -122 -26
-275 -11 -437 141 -825 450 -1149 288 -302 666 -486 1105 -540 76 -9 430 -8
446 2 5 2 29 8 54 11 160 22 426 108 545 178 17 9 54 30 82 45 103 55 239 160
349 268 102 101 216 241 250 308 8 15 18 27 22 27 4 -1 31 -38 60 -83 146
-227 398 -446 657 -572 185 -89 328 -138 470 -161 20 -3 47 -8 59 -10 85 -19
389 -26 516 -12 393 44 786 233 1065 513 63 63 169 190 199 238 l17 28 67 -88
c61 -81 195 -223 267 -283 237 -197 529 -332 845 -391 130 -24 404 -33 530
-18 437 53 836 248 1109 543 20 21 43 46 52 55 42 44 189 250 189 266 0 3 10
22 23 43 44 71 116 258 142 369 33 135 37 173 40 363 3 129 -1 189 -16 275
-70 404 -279 749 -619 1024 -37 30 -40 33 -105 75 -33 21 -71 46 -85 55 -137
90 -448 201 -635 227 -27 3 -59 9 -70 11 -11 3 -99 7 -195 8 -316 6 -559 -47
-836 -180 -255 -123 -452 -282 -626 -506 l-75 -97 -59 81 c-33 44 -107 128
-166 187 -274 274 -634 449 -1036 504 -101 14 -398 15 -477 2 -16 -2 -57 -9
-90 -15 -473 -81 -902 -356 -1166 -748 -28 -41 -53 -72 -55 -70 -3 3 -26 36
-52 75 -70 104 -106 147 -217 258 -150 149 -331 272 -535 363 -41 18 -79 34
-85 36 -5 1 -17 5 -25 8 -55 23 -239 69 -330 83 -19 3 -46 8 -60 10 -32 7
-374 16 -381 10z"/>
</g>
</svg>
